<svg xmlns="http://www.w3.org/2000/svg" width="300" height="69.48"><path d="M92.28 22.25c-.03-1.8-.06-3.5.06-5.19.34-4.69 2.97-7.21 7.83-7.48l1.77-.09.86-.04.73-.04V.09l-.81.04-1.87.09c-1.36.06-2.65.11-3.96.25-6.25.69-10.58 3.94-12.52 9.38-.94 2.64-1.31 5.49-1.68 8.25l-.12.9c-.18 1.34-.13 2.7-.09 4.02l.03.97H68.9v-.79c.02-.64.02-1.28.03-1.91.02-1.43.03-2.91.17-4.33.44-4.71 2.99-7.12 7.77-7.37.47-.02.97-.04 1.58-.04.45 0 .91 0 1.36.01.46 0 .91.01 1.36.01h.77V0l-.82.05c-.89.06-1.79.1-2.66.14-2.12.09-4.12.18-6.14.52-1.92.32-3.94 1.11-5.69 2.21-2.74 1.73-6.46 5.05-7.23 14.01-.15 1.79-.12 3.55-.08 5.42.01.59.03 1.19.03 1.8h-8.83v8.56h8.73v36.66h9.74V32.79h13.54v36.6h9.76V32.81h15.03v36.56h9.62V24.03H92.29c0-.6-.02-1.19-.03-1.77zm198.36 1.95v4.49c-.72-.58-1.52-1.22-2.32-1.84-3.24-2.48-7.52-3.85-12.06-3.85-4.68 0-9.22 1.44-12.79 4.06-4.56 3.35-7.7 8.4-8.85 14.24-1.15 5.83-.18 11.8 2.72 16.8 3.94 6.79 11 11.01 18.43 11.01 2.28 0 4.53-.39 6.7-1.16 3.21-1.14 5.91-2.98 8.2-5.58v5.67H300V24.2h-9.36zm-13.86 35.87c-.5 0-1-.03-1.5-.08-5.23-.52-9.85-5-11.22-10.88-1.51-6.44 1.94-13.52 7.84-16.12 1.54-.68 3.19-1.02 4.9-1.02 6.54 0 12.49 4.96 13.56 11.29.1.62.18 1.26.25 1.88.03.28.07.56.1.85-.09 7.9-6.19 14.08-13.93 14.08zM36.49 28.69c-.72-.58-1.52-1.22-2.32-1.84C30.93 24.37 26.65 23 22.11 23c-4.68 0-9.22 1.44-12.79 4.06-4.56 3.34-7.7 8.4-8.85 14.23-1.15 5.83-.18 11.8 2.72 16.8 3.94 6.79 11 11.01 18.43 11.01 2.28 0 4.53-.39 6.7-1.16 3.21-1.14 5.91-2.98 8.2-5.58v5.57h9.33V24.2h-9.36v4.49zM22.63 60.07c-.5 0-1-.03-1.5-.08-5.23-.52-9.85-5-11.22-10.88-1.51-6.44 1.94-13.52 7.84-16.12 1.54-.68 3.19-1.02 4.9-1.02 6.54 0 12.49 4.96 13.56 11.29.1.62.18 1.26.25 1.88.03.28.07.56.1.85-.09 7.9-6.19 14.08-13.93 14.08zm143.76-22.44c-1.52-7.83-6.11-12.71-13.27-14.13-1.7-.34-3.35-.51-4.91-.51-5.5 0-10.08 2.08-13.63 6.2v-5h-9.57v45.24h9.64s-.02-19.27.01-24.34c.04-6.08 2.96-10.18 8.44-11.87 1.4-.43 2.79-.65 4.11-.65 4.47 0 7.95 2.53 9.3 6.77.43 1.35.66 2.91.68 4.52.05 5.7.03 25.51.03 25.51h9.76s.01-20.42-.03-26.52c-.01-1.63-.2-3.39-.56-5.22zm8.6 31.81h9.56V24.25h-9.56v45.19zm64.07.04h9.56V24.25h-9.56v45.23zm-12.33-18.99c-2.36 6.42-8.56 9.29-13.67 9.29-1.43 0-2.8-.21-4.07-.64-6.38-2.13-10.45-9.15-9.08-15.65.75-3.57 2.73-6.45 5.88-8.57 3.77-2.54 7.95-3.22 12.22-1.98l.93.27 3.24-8.35-.94-.4c-2.17-.93-4.57-1.43-7.14-1.47h-.66c-9.76.14-18.93 6.49-22.38 15.55-2.2 5.76-1.78 12.4 1.13 18.22 2.91 5.81 7.98 10.12 13.91 11.81 2.11.6 4.29.91 6.48.91 10.62 0 20.68-7.27 22.89-16.54l.24-1-8.65-2.35-.34.91zM112.52 6.54c-3.19 0-5.88 2.41-5.88 5.53s2.69 5.6 5.88 5.6 5.88-2.48 5.88-5.6-2.62-5.53-5.88-5.53zm67.48 0c-3.19 0-5.88 2.41-5.88 5.53s2.69 5.6 5.88 5.6 5.88-2.48 5.88-5.6-2.62-5.53-5.88-5.53zm64.07 0c-3.19 0-5.88 2.41-5.88 5.53s2.69 5.6 5.88 5.6 5.88-2.48 5.88-5.6-2.62-5.53-5.88-5.53z" style="fill:#971f64"/></svg>
